<svg width="23" height="21" viewBox="0 0 23 21" fill="none" xmlns="http://www.w3.org/2000/svg">
<path d="M0.474609 6.75C0.474609 8.375 0.699609 10.875 2.72461 13.125C4.52461 15.125 10.4871 19.625 10.7121 19.875C10.9371 20 11.1621 20.125 11.3871 20.125C11.6121 20.125 11.8371 20 12.0621 19.875C12.2871 19.625 18.2496 15.25 20.0496 13.125C22.0746 10.875 22.2996 8.375 22.2996 6.75C22.2996 3 19.5996 0 16.2246 0C14.4246 0 12.6246 1.125 11.4996 2.875C10.3746 1.125 8.57461 0 6.54961 0C3.28711 0 0.474609 3 0.474609 6.75Z" fill="#FF9500"/>
</svg>
