<svg width="20" height="23" viewBox="0 0 20 23" fill="none" xmlns="http://www.w3.org/2000/svg">
<path d="M1.86713e-08 1.52004C1.86713e-08 1.1169 0.175595 0.730274 0.488156 0.445211C0.800716 0.160147 1.22464 0 1.66667 0H18.3333C18.7754 0 19.1993 0.160147 19.5118 0.445211C19.8244 0.730274 20 1.1169 20 1.52004V21.4797C20 21.7549 19.9182 22.025 19.7631 22.261C19.6081 22.4971 19.3857 22.6904 19.1196 22.8202C18.8536 22.95 18.5539 23.0116 18.2525 22.9982C17.9511 22.9849 17.6593 22.8971 17.4083 22.7444L10.925 18.8029C10.6511 18.6363 10.3292 18.5473 10 18.5473C9.67075 18.5473 9.34888 18.6363 9.075 18.8029L2.59167 22.7444C2.34067 22.8971 2.04891 22.9849 1.74753 22.9982C1.44615 23.0116 1.14644 22.95 0.880392 22.8202C0.614342 22.6904 0.391927 22.4971 0.236876 22.261C0.081825 22.025 -4.51396e-05 21.7549 1.86713e-08 21.4797V1.52004Z" fill="black"/>
</svg>
