<svg width="27" height="23" viewBox="0 0 27 23" fill="none" xmlns="http://www.w3.org/2000/svg">
<path d="M1.51001 22.5254C1.57856 22.6673 1.68744 22.7873 1.82388 22.8714C1.96031 22.9554 2.11865 23.0001 2.28032 23C4.72049 23 6.78486 22.4249 9.1298 21.0853C10.2674 21.2599 12.5137 21.4758 13.5 21.4758C20.9446 21.4758 27 16.6593 27 10.7371C27 4.81487 20.9446 0 13.5 0C6.05536 0 0 4.81487 0 10.7371C0 13.5284 1.38928 16.2259 3.83455 18.2247C3.27013 19.4608 2.52757 20.6132 1.62905 21.6472C1.41819 21.8943 1.37058 22.2371 1.51001 22.5254ZM1.70047 10.7371C1.70047 5.72446 6.99402 1.64615 13.5 1.64615C20.006 1.64615 25.2995 5.72446 25.2995 10.7371C25.2995 15.7497 20.006 19.828 13.5 19.828C12.5239 19.828 9.98344 19.5742 9.1247 19.4127C8.91694 19.3766 8.70269 19.414 8.52104 19.5182C6.9362 20.4574 5.55372 20.9946 4.07432 21.222C4.70821 20.2944 5.23835 19.304 5.65575 18.2675C5.7233 18.1006 5.73261 17.9168 5.68225 17.7442C5.6319 17.5716 5.52465 17.4198 5.37687 17.3118C3.00472 15.5717 1.70047 13.2351 1.70047 10.7371Z" fill="black"/>
</svg>
