<svg width="19" height="22" viewBox="0 0 19 22" fill="none" xmlns="http://www.w3.org/2000/svg">
<path d="M1.22915 18.2996H1.46609L4.07249 17.8371C5.25721 17.6058 6.32346 17.0276 7.15277 16.2181L17.9338 5.81078C18.6446 5.23259 19 4.30749 19 3.38239C19 2.45729 18.6446 1.64783 17.9338 0.954008C16.6306 -0.318003 14.3796 -0.318003 12.9579 0.954008L2.17693 11.2457C1.34762 12.0552 0.755261 13.0959 0.518317 14.2523L0.0444271 16.912C-0.0740452 17.2589 0.0444273 17.7214 0.399844 17.9527C0.636789 18.184 0.873733 18.2996 1.22915 18.2996ZM14.6165 2.68857C14.8535 2.45729 15.2089 2.34166 15.4458 2.34166C15.8012 2.34166 16.0382 2.45729 16.2751 2.68857C16.5121 2.91984 16.6306 3.15112 16.6306 3.38239C16.6306 3.49803 16.6306 3.84494 16.2751 4.19185L15.8012 4.6544L14.1426 3.15112L14.6165 2.68857ZM2.88776 14.8305C3.00624 14.1367 3.36165 13.5585 3.95401 12.9803L12.484 4.77004L14.1426 6.27332L5.61263 14.4836C5.13874 14.9461 4.4279 15.293 3.71707 15.4087L2.76929 15.6399L2.88776 14.8305ZM17.8153 19.6873H1.22915C0.518316 19.6873 0.0444271 20.1498 0.0444271 20.8436C0.0444271 21.5375 0.518316 22 1.22915 22H17.8153C18.5261 22 19 21.5375 19 20.8436C19 20.1498 18.5261 19.6873 17.8153 19.6873Z" fill="black"/>
</svg>
