<svg width="25" height="23" viewBox="0 0 25 23" fill="none" xmlns="http://www.w3.org/2000/svg">
<path d="M12.5 23C12.3681 23.0001 12.2375 22.9739 12.1156 22.9228C11.9938 22.8717 11.8831 22.7968 11.7899 22.7023L2.20251 13.0045C-0.734172 10.0339 -0.734172 5.20025 2.20251 2.22973C5.0227 -0.624975 9.54323 -0.739773 12.5 1.89245C15.4548 -0.736725 19.9753 -0.625991 22.7975 2.22973C25.7342 5.20025 25.7342 10.035 22.7975 13.0045L13.2101 22.7023C13.1169 22.7968 13.0062 22.8717 12.8844 22.9228C12.7625 22.9739 12.6319 23.0001 12.5 23ZM7.52953 2.03163C6.80406 2.03034 6.08548 2.17399 5.41504 2.45432C4.74459 2.73465 4.13548 3.14616 3.62265 3.66521C2.58801 4.71372 2.00691 6.13464 2.00691 7.61608C2.00691 9.09752 2.58801 10.5184 3.62265 11.567L12.5 20.5466L21.3773 11.567C22.412 10.5184 22.9931 9.09752 22.9931 7.61608C22.9931 6.13464 22.412 4.71372 21.3773 3.66521C20.3408 2.61865 18.936 2.03086 17.4715 2.03086C16.0069 2.03086 14.6022 2.61865 13.5656 3.66521L13.2101 4.02484C13.1169 4.11927 13.0062 4.19418 12.8844 4.24529C12.7625 4.2964 12.6319 4.32271 12.5 4.32271C12.3681 4.32271 12.2375 4.2964 12.1156 4.24529C11.9938 4.19418 11.8831 4.11927 11.7899 4.02484L11.4344 3.66521C10.922 3.14617 10.3132 2.73466 9.6431 2.45432C8.97298 2.17398 8.2547 2.03033 7.52953 2.03163Z" fill="black"/>
</svg>
