<svg width="20" height="23" viewBox="0 0 20 23" fill="none" xmlns="http://www.w3.org/2000/svg">
<path d="M17 0H3C1.346 0 0 1.34598 0 2.99996V21.9997C5.72757e-05 22.1869 0.0526499 22.3703 0.151794 22.5291C0.250939 22.6879 0.392655 22.8156 0.56082 22.8978C0.728984 22.98 0.916847 23.0134 1.10303 22.9941C1.28922 22.9748 1.46626 22.9037 1.614 22.7887L10 16.2668L18.386 22.7887C18.5335 22.904 18.7106 22.9754 18.8968 22.9947C19.0831 23.014 19.271 22.9804 19.439 22.8977C19.6072 22.8156 19.7489 22.6878 19.8481 22.5291C19.9473 22.3703 19.9999 22.1869 20 21.9997V2.99996C20 1.34598 18.654 0 17 0ZM18 19.9558L10.614 14.2108C10.4386 14.074 10.2226 13.9996 10.0002 13.9994C9.77773 13.9992 9.56158 14.0733 9.386 14.2098L2 19.9558V2.99996C2 2.44897 2.449 1.99998 3 1.99998H17C17.551 1.99998 18 2.44897 18 2.99996V19.9558Z" fill="black"/>
</svg>
