<svg width="17" height="16" viewBox="0 0 17 16" fill="none" xmlns="http://www.w3.org/2000/svg">
<path fill-rule="evenodd" clip-rule="evenodd" d="M8.30859 0C3.88932 0 0.308594 3.67118 0.308594 8.20209C0.308594 11.8252 2.60026 14.901 5.77995 15.985C6.18099 16.0598 6.32682 15.8088 6.32682 15.5898C6.32682 15.3949 6.31901 14.8796 6.31641 14.1961C4.08984 14.6901 3.62109 13.0961 3.62109 13.0961C3.25651 12.1483 2.73307 11.8946 2.73307 11.8946C2.00651 11.3873 2.78776 11.398 2.78776 11.398C3.58984 11.4568 4.01172 12.2417 4.01172 12.2417C4.72526 13.4966 5.88411 13.1335 6.33984 12.9252C6.41276 12.3939 6.62109 12.0335 6.84766 11.8279C5.07161 11.6223 3.20443 10.9174 3.20443 7.7749C3.20443 6.87779 3.51693 6.14623 4.02734 5.57219C3.94661 5.3666 3.67057 4.53091 4.10547 3.40152C4.10547 3.40152 4.77734 3.18258 6.30599 4.24255C6.94401 4.06099 7.62891 3.97022 8.30859 3.96755C8.98828 3.97022 9.67318 4.06099 10.3112 4.24255C11.8398 3.18258 12.5091 3.40152 12.5091 3.40152C12.9466 4.53091 12.6732 5.3666 12.5898 5.57219C13.1029 6.14623 13.4102 6.87779 13.4102 7.7749C13.4102 10.9254 11.5404 11.617 9.75912 11.8225C10.0456 12.0735 10.3008 12.5755 10.3008 13.3391C10.3008 14.4364 10.293 15.3202 10.293 15.5898C10.293 15.8088 10.4362 16.0651 10.8424 15.985C14.0195 14.8983 16.3086 11.8252 16.3086 8.20209C16.3086 3.67118 12.7279 0 8.30859 0Z" fill="black"/>
</svg>
