<svg width="17" height="16" viewBox="0 0 17 16" fill="none" xmlns="http://www.w3.org/2000/svg">
<path d="M2.08637 0C1.10415 0 0.308594 0.795556 0.308594 1.77778V14.2222C0.308594 15.2044 1.10415 16 2.08637 16H14.5308C15.513 16 16.3086 15.2044 16.3086 14.2222V1.77778C16.3086 0.795556 15.513 0 14.5308 0H2.08637ZM2.08637 1.77778H14.5308V14.2222H2.08637V1.77778ZM4.55686 2.94792C3.79508 2.94792 3.33811 3.40585 3.33811 4.01563C3.33811 4.6254 3.79514 5.0816 4.48047 5.0816C5.24225 5.0816 5.69922 4.6254 5.69922 4.01563C5.69922 3.40585 5.24219 2.94792 4.55686 2.94792ZM3.39887 6.22222V12.4444H5.64193V6.22222H3.39887ZM7.49262 6.22222V12.4444H9.73568V9.0434C9.73568 8.03096 10.458 7.88542 10.6749 7.88542C10.8918 7.88542 11.4718 8.10296 11.4718 9.0434V12.4444H13.6419V9.0434C13.6419 7.09051 12.7741 6.22222 11.6888 6.22222C10.6035 6.22222 10.0246 6.58361 9.73568 7.09028V6.22222H7.49262Z" fill="black"/>
</svg>
