<svg width="17" height="12" viewBox="0 0 17 12" fill="none" xmlns="http://www.w3.org/2000/svg">
<path d="M14.0915 1.3306C12.7063 0.201161 10.516 0.00982819 10.4235 0.00171105C10.2772 -0.0110445 10.1383 0.0730261 10.0783 0.208698C10.076 0.213337 9.95374 0.573389 9.83545 0.920687C11.4452 1.20653 12.5389 1.84082 12.5972 1.87561C12.8703 2.03679 12.9617 2.39221 12.8023 2.66877C12.6966 2.85315 12.5052 2.95635 12.3086 2.95635C12.2109 2.95635 12.1126 2.93142 12.0223 2.87808C12.0063 2.86822 10.4017 1.94171 8.30974 1.94171C6.21717 1.94171 4.61202 2.8688 4.59602 2.87808C4.32345 3.03868 3.97374 2.94417 3.81545 2.66703C3.65717 2.39105 3.74917 2.03679 4.02117 1.87561C4.07945 1.84082 5.17717 1.20421 6.79145 0.918948C6.66688 0.567592 6.54117 0.213337 6.53888 0.208698C6.47888 0.0724463 6.34002 -0.0133636 6.19374 0.00171105C6.10117 0.00924839 3.91088 0.200581 2.50745 1.34568C1.77374 2.03331 0.308594 6.05362 0.308594 9.52949C0.308594 9.59095 0.324022 9.65067 0.354308 9.70401C1.36631 11.5072 4.12517 11.9791 4.75374 11.9994C4.75774 12 4.76117 12 4.76459 12C4.87545 12 4.98002 11.9461 5.04574 11.8551L5.72574 10.9204C4.23431 10.5557 3.44574 9.98231 3.39831 9.94694C3.14459 9.75735 3.08974 9.3944 3.27659 9.13639C3.46288 8.87954 3.81945 8.82272 4.07317 9.01115C4.09431 9.02507 5.54974 10.0588 8.30859 10.0588C11.0783 10.0588 12.5297 9.02101 12.544 9.01057C12.7977 8.82388 13.1555 8.88012 13.3412 9.13871C13.5263 9.39614 13.4726 9.75677 13.22 9.94578C13.1726 9.98115 12.388 10.5534 10.9 10.9181L11.5715 11.8545C11.6372 11.9461 11.7417 11.9994 11.8526 11.9994C11.8566 11.9994 11.86 11.9994 11.8635 11.9988C12.4926 11.9785 15.2515 11.5066 16.2629 9.70343C16.2932 9.65009 16.3086 9.59037 16.3086 9.52891C16.3086 6.05362 14.8435 2.03331 14.0915 1.3306ZM6.02288 8.31946C5.39145 8.31946 4.88002 7.67067 4.88002 6.86997C4.88002 6.06927 5.39145 5.42048 6.02288 5.42048C6.65431 5.42048 7.16574 6.06927 7.16574 6.86997C7.16574 7.67067 6.65431 8.31946 6.02288 8.31946ZM10.5943 8.31946C9.96288 8.31946 9.45145 7.67067 9.45145 6.86997C9.45145 6.06927 9.96288 5.42048 10.5943 5.42048C11.2257 5.42048 11.7372 6.06927 11.7372 6.86997C11.7372 7.67067 11.2257 8.31946 10.5943 8.31946Z" fill="black"/>
</svg>
