<svg width="31" height="30" viewBox="0 0 31 30" fill="none" xmlns="http://www.w3.org/2000/svg">
<path d="M15.3086 0C7.03239 0 0.308594 6.73455 0.308594 15.024C0.308594 22.5491 5.85009 28.7767 13.0674 29.8626L13.8504 29.9813V18.1425H10.3068V15.7389H13.8504V12.5471C13.8504 10.5817 14.3213 9.28717 15.1009 8.47501C15.8804 7.66286 17.0322 7.25325 18.6351 7.25325C19.9168 7.25325 20.4154 7.33103 20.8896 7.38929V9.35666H19.2211C18.2743 9.35666 17.4975 9.88573 17.0944 10.5904C16.6912 11.2951 16.5657 12.1365 16.5657 12.994V15.7376H20.7405L20.369 18.1411H16.5657V30L17.3394 29.8946C24.6593 28.9003 30.3086 22.6226 30.3086 15.024C30.3086 6.73455 23.5848 0 15.3086 0ZM15.3086 1.36582C22.8478 1.36582 28.945 7.47269 28.945 15.024C28.945 21.6686 24.1966 27.1332 17.9293 28.3634V19.5069H21.5382L22.3305 14.3718H17.9293V12.994C17.9293 12.2855 18.0588 11.6506 18.2769 11.2693C18.495 10.888 18.7053 10.7225 19.2211 10.7225H22.2533V6.15285L21.662 6.07283C21.2531 6.0174 20.3194 5.88743 18.6351 5.88743C16.7921 5.88743 15.2101 6.39029 14.1181 7.52801C13.026 8.66573 12.4868 10.3598 12.4868 12.5471V14.3731H8.94318V19.5083H12.4868V28.3207C6.32018 27.0124 1.67223 21.5966 1.67223 15.024C1.67223 7.47269 7.76935 1.36582 15.3086 1.36582Z" fill="black"/>
</svg>
