<svg width="17" height="19" viewBox="0 0 17 19" fill="none" xmlns="http://www.w3.org/2000/svg">
<path d="M4.75304 0.666748C2.30237 0.666748 0.308594 2.88206 0.308594 5.60502V13.5063C0.308594 16.2292 2.30237 18.4445 4.75304 18.4445H11.8641C14.3148 18.4445 16.3086 16.2292 16.3086 13.5063V5.60502C16.3086 2.88206 14.3148 0.666748 11.8641 0.666748H4.75304ZM4.75304 2.64206H11.8641C13.3344 2.64206 14.5308 3.97144 14.5308 5.60502V13.5063C14.5308 15.1398 13.3344 16.4692 11.8641 16.4692H4.75304C3.28282 16.4692 2.08637 15.1398 2.08637 13.5063V5.60502C2.08637 3.97144 3.28282 2.64206 4.75304 2.64206ZM12.753 3.62971C12.5173 3.62971 12.2912 3.73377 12.1245 3.91899C11.9578 4.10421 11.8641 4.35542 11.8641 4.61737C11.8641 4.87931 11.9578 5.13052 12.1245 5.31574C12.2912 5.50096 12.5173 5.60502 12.753 5.60502C12.9888 5.60502 13.2149 5.50096 13.3816 5.31574C13.5483 5.13052 13.6419 4.87931 13.6419 4.61737C13.6419 4.35542 13.5483 4.10421 13.3816 3.91899C13.2149 3.73377 12.9888 3.62971 12.753 3.62971ZM8.30859 4.61737C5.85793 4.61737 3.86415 6.83267 3.86415 9.55564C3.86415 12.2786 5.85793 14.4939 8.30859 14.4939C10.7593 14.4939 12.753 12.2786 12.753 9.55564C12.753 6.83267 10.7593 4.61737 8.30859 4.61737ZM8.30859 6.59267C9.77882 6.59267 10.9753 7.92206 10.9753 9.55564C10.9753 11.1892 9.77882 12.5186 8.30859 12.5186C6.83837 12.5186 5.64193 11.1892 5.64193 9.55564C5.64193 7.92206 6.83837 6.59267 8.30859 6.59267Z" fill="black"/>
</svg>
