<svg width="17" height="16" viewBox="0 0 17 16" fill="none" xmlns="http://www.w3.org/2000/svg">
<path d="M16.3473 2.49172C15.7561 2.78339 15.1223 2.97922 14.4561 3.06811C15.1361 2.61533 15.6586 1.89867 15.9036 1.04589C15.2686 1.46394 14.5623 1.76811 13.8136 1.932C13.2136 1.22089 12.3586 0.777832 11.4123 0.777832C9.59484 0.777832 8.12109 2.41394 8.12109 4.43339C8.12109 4.7195 8.15109 4.99866 8.20734 5.26672C5.47234 5.11394 3.04859 3.65839 1.42484 1.44589C1.14109 1.98755 0.979844 2.61533 0.979844 3.28478C0.979844 4.55283 1.55984 5.67228 2.44359 6.32922C1.90359 6.30978 1.39609 6.1445 0.952344 5.87089C0.952344 5.88617 0.952344 5.90144 0.952344 5.91672C0.952344 7.68894 2.08734 9.16533 3.59109 9.50283C3.31609 9.58616 3.02484 9.63061 2.72484 9.63061C2.51234 9.63061 2.30609 9.60839 2.10484 9.56394C2.52484 11.0153 3.73984 12.0751 5.17859 12.1042C4.05359 13.0848 2.63484 13.6681 1.09234 13.6681C0.826094 13.6681 0.564844 13.6514 0.308594 13.6167C1.76359 14.6556 3.49359 15.2598 5.35234 15.2598C11.4048 15.2598 14.7148 9.68894 14.7148 4.85839C14.7148 4.70005 14.7111 4.54033 14.7061 4.38478C15.3486 3.8695 15.9061 3.22505 16.3473 2.49172Z" fill="black"/>
</svg>
